<?xml version="1.0" encoding="UTF-8"?>
<svg id="Capa_2" data-name="Capa 2" xmlns="http://www.w3.org/2000/svg" viewBox="0 0 846.87 354.17">
  <defs>
    <style>
      .cls-1 {
        fill: #3461f2;
      }

      .cls-2 {
        fill: #141390;
      }

      .cls-3 {
        fill: #00003f;
        stroke: #00003f;
        stroke-miterlimit: 10;
        stroke-width: 10.68px;
      }
    </style>
  </defs>
  <g id="Capa_1-2" data-name="Capa 1">
    <g>
      <path class="cls-2" d="M449.65,109.17v63.39h-17.21v-32.33l-3.98,13.49c-2.54,8.42-3.53,10.6-10.05,10.6h-1.18c-6.61,0-7.52-2.17-10.05-10.6l-3.98-13.49v32.33h-17.21v-63.39h10.23c10.78,0,13.49,4.26,16.03,12.41l5.52,17.66,5.52-17.66c2.54-8.15,5.34-12.41,16.03-12.41h10.32Z"/>
      <path class="cls-2" d="M517.48,145.39c0,17.93-8.06,27.71-28.25,27.71h-1.27c-20.19,0-28.35-9.78-28.35-27.71v-36.22h17.21v36.22c0,10.32,4.53,13.31,10.32,13.31h2.9c5.8,0,10.23-2.99,10.23-13.31v-36.22h17.21v36.22Z"/>
      <path class="cls-2" d="M570.64,158.16v14.4h-32.96c-7.88,0-10.42-3.71-10.42-11.05v-52.34h17.21v46.28c0,1.99.45,2.72,2.63,2.72h23.55Z"/>
      <path class="cls-2" d="M615.83,109.08v14.4h-17.75v48.99h-17.21v-48.99h-17.75v-14.4h52.71Z"/>
      <path class="cls-2" d="M622.09,172.56v-63.39h17.21v63.39h-17.21Z"/>
    </g>
    <g>
      <path class="cls-2" d="M443.67,185.68v63.39h-12.14c-7.97,0-11.5-1.81-15.12-9.15l-13.31-26.53v35.68h-17.21v-63.39h11.86c8.97,0,11.86,2.63,15.21,9.42l13.49,26.99v-36.41h17.21Z"/>
      <path class="cls-2" d="M512.59,217.38c0,17.93-4.71,32.24-29.43,32.24h-1.27c-24.72,0-29.43-14.31-29.43-32.24s4.71-32.24,29.43-32.24h1.27c24.72,0,29.43,14.31,29.43,32.24ZM495.38,217.38c0-14.85-5.61-17.84-11.41-17.84h-2.9c-5.71,0-11.41,2.99-11.41,17.84s5.71,17.84,11.41,17.84h2.9c5.8,0,11.41-2.99,11.41-17.84Z"/>
      <path class="cls-2" d="M581.96,185.68l-19.2,46.19c-5.8,13.95-9.6,17.21-24.36,17.21h-16.93v-63.39h17.03v47.82c3.8-.45,5.89-3.17,9.06-11.14l14.94-36.68h19.47Z"/>
      <path class="cls-2" d="M604.42,202.8v7.33h26.17v14.49h-26.17v7.33c0,1.99.45,2.72,2.63,2.72h28.07v14.4h-37.49c-7.88,0-10.41-3.71-10.41-11.05v-41.21c0-7.43,2.54-11.14,10.41-11.14h37.49v14.4h-28.07c-2.17,0-2.63.72-2.63,2.72Z"/>
      <path class="cls-2" d="M687.56,234.68v14.4h-32.96c-7.88,0-10.41-3.71-10.41-11.05v-52.34h17.21v46.28c0,1.99.45,2.72,2.63,2.72h23.55Z"/>
      <path class="cls-2" d="M732.75,185.59v14.4h-17.75v48.99h-17.21v-48.99h-17.75v-14.4h52.71Z"/>
      <path class="cls-2" d="M793.16,185.68l-21.01,40.03v23.36h-17.12v-22.28l-21.55-41.11h17.75l11.95,22.73,11.59-22.73h18.38Z"/>
      <path class="cls-2" d="M846.87,227.89c0,12.59-6.07,21.73-26.17,21.73-16.21,0-25.81-3.62-26.35-21.73h15.12c0,5.34,3.89,7.25,10.6,7.25,7.7,0,11.68-1.72,11.68-5.52,0-5.34-7.34-4.89-15.67-5.52-11.14-.81-21.28-3.71-21.28-17.21,0-15.4,9.15-21.73,25.27-21.73s24.81,6.79,25.27,22.91h-15.12c0-6.52-2.63-8.42-9.6-8.42-6.34,0-10.05,1.81-10.05,5.52,0,5.25,6.43,5.43,14.76,5.89,13.67.91,21.55,4.89,21.55,16.84Z"/>
    </g>
    <path class="cls-3" d="M105.68,267.2c2.94,6.48,5.91,12.86,9.2,19.08,5.71,10.79,12.38,20.86,22.38,28.26,13.18,9.76,27.48,9.68,40.57-.27,10.61-8.07,17.36-19.08,23.15-30.8,1.86-3.77-1.05-4.27-3.45-5.01-16.13-4.95-31.74-11.24-46.96-18.51-24.69-11.78-48.07-25.79-69.77-42.42-10.67-8.17-21.14-16.7-30.29-26.66-2.31-2.51-4.27-3.27-7.06-.34-16.17,17.06-30.02,35.48-35.4,59-.19.81-.34,1.66-1.4,2.03-1.84-1.02-1.18-2.88-1.25-4.4-.75-15.18,5.6-28.19,12.83-40.85,4.85-8.49,10.23-16.67,17.19-23.62,2.9-2.89,2.48-5.15-.03-8.15-9.98-11.95-18.75-24.69-24-39.52-2.02-5.72-3.57-11.56-3.65-17.73-.19-16.12,8.42-28.92,23.53-34.82,17.21-6.73,35-6.11,52.84-3.94,9.64,1.18,19.23,2.89,29.45,5.91-2.5,1.64-4.24.72-5.86.53-14.63-1.72-29.22-2.37-43.59,1.84-23.56,6.9-32.39,24.07-24.84,48.24,2.64,8.44,7.05,15.98,11.62,23.48,2.26,3.71,4.11,3.46,7.01.76,12.45-11.63,25.87-22.08,39.93-31.69,34.05-23.27,70.56-41.35,110.4-52.43,2.3-.64,4.84-.75,3.71-4.4-6.01-19.41-13.2-38.24-26.56-54.01-2.64-3.12-5.66-5.93-8.2-9.28,6.41,1.08,11.16,4.94,15.57,9.2,13.81,13.3,22,30.03,28.69,47.63,2.65,6.97,2.57,6.94,10.07,5.84,16.93-2.47,33.84-3.57,50.62,1.13,23.62,6.62,34.3,26.03,27.39,49.62-5.52,18.84-16.23,34.64-28.77,49.36-3.89,4.56-8.11,8.83-12.61,12.94-.17-2.6,1.62-4.18,2.92-5.91,9.28-12.35,17.21-25.36,20.53-40.7,4.31-19.94-4.07-34.55-23.29-41.01-10.93-3.67-22.17-3.69-33.48-3.41-4.4.11-4.24,2.33-3.5,5.65,8.1,36.44,10.22,73.31,7.65,110.49-1.44,20.89-4.6,41.51-10.07,61.74-.87,3.2-.59,5.05,3.06,5.86,18.86,4.15,37.8,6.93,57.11,3.78,4.7-.77,9.28-2.21,14.28-3.43-.72,3.13-3,3.79-4.8,4.81-14.59,8.26-30.91,8.83-47.41,8.1-7.45-.33-14.81-1.52-22.12-2.99-3.77-.76-5.21.56-6.51,4.17-6.01,16.57-13.55,32.4-26.35,44.93-19.32,18.91-41.25,17.88-59.38-2.31-14.17-15.78-22.37-34.69-28.83-54.52-1.18-3.61-2.88-7.15-2.25-11.27ZM109.76,217.51c10.03,7.72,20.77,14.37,31.63,20.79,19.74,11.68,40.38,21.52,62.04,29.15,2.85,1,4.23.43,5.25-2.5,2.76-7.96,5.2-16.02,7.04-24.23,10.02-44.57,11-89.41,3.91-134.48-2-12.7-1.9-12.49-14.77-9.35-21.03,5.13-41.19,12.61-60.68,21.94-28.25,13.52-54.29,30.44-78.38,50.44-3.32,2.76-3.61,4.67-.58,8.1,13.33,15.09,28.55,28.04,44.55,40.14Z"/>
    <path class="cls-1" d="M168.01,187.39c-10.78-.56-19.17-9.41-18.54-19.57.68-10.98,9.64-19.02,20.51-18.4,10.7.6,18.44,9.7,17.82,20.93-.55,9.81-9.56,17.57-19.79,17.04Z"/>
  </g>
</svg>